# xmcd CD database file
#
# Track frame offsets:
#	150
#	22163
#	36083
#	69373
#	101259
#	113034
#	141762
#	165913
#	185307
#	204279
#	229748
#	248155
#	260032
#	283565
#
# Disc length: 4129 seconds
#
# Revision: 1
# Processed by: cddbd v1.5.2PL0 Copyright (c) Steve Scherf et al.
# Submitted via: CDex 1.51
#
DISCID=b8101f0e
DTITLE=Various Artist - The History of Jazz ~ The Very Best of Swing, Bebop, Cool and Fusion  [CD 4-5]
DYEAR=2007
DGENRE=Jazz
TTITLE0=Dave Brubeck - Take Five  (Desmond)
TTITLE1=Peggy Lee - Fever  (Davenport - Cooley)
TTITLE2=Stan Getz - Autumn Leaves  (Kosma - Prevert)
TTITLE3=Thelonious Monk - April in Paris  (Harburg - Duke)
TTITLE4=Ray Charles - Alexander's Ragtime Band  (Berlin)
TTITLE5=Chet Baker - Milestones  (Davis)
TTITLE6=Stephane Grappelli and Mc Coy Tyner - How High The Moon  (Halmilton)
TTITLE7=Dexter Gordon - Lullaby Of Birdland  (Shearing - Weiss)
TTITLE8=Buddy Rich - Ain'T Misbehavin' (Razaf - Waller - Brooks)
TTITLE9=Kenny Burrell - Night In Tunisia  (Gillespie - Paparelli)
TTITLE10=Bill Evans - Blue in Green  (Davis)
TTITLE11=Modern Jazz Quartet - Between The Devil And The Deep Blue Sea  (Koehler - Arlen)
TTITLE12=Archie Shepp - Sophisticated Lady  (Ellington - Brown - Hardwicke)
TTITLE13=Herbie Hancock - Herbie's Blues  (Hancock)
EXTD=YEAR: 2007
EXTT0=
EXTT1=
EXTT2=
EXTT3=
EXTT4=
EXTT5=
EXTT6=
EXTT7=
EXTT8=
EXTT9=
EXTT10=
EXTT11=
EXTT12=
EXTT13=
PLAYORDER=
